#!OML:ASF X:\für Bonn\!DataBase\2005_08_12_Daniel\c3d\Daniel.ASF
:FULLY-SPECIFIED
:DEGREES
1
root -1.88903 16.8013 -0.0341274 -339.953 -76.4758 327.183
lowerback 22.2672 -4.20362 7.21993
upperback 7.07332 -4.35958 0.175268
thorax -5.10798 -2.32051 -2.74267
lowerneck 0.131477 3.45838 2.46286
upperneck 17.6256 3.9607 0.963009
head 5.31725 1.96366 0.0537322
rclavicle 2.37548e-014 -1.39149e-014
rhumerus -36.4421 27.708 -82.6385
rradius 84.1561
rwrist -2.54791
rhand -32.4178 38.6716
rfingers 7.12502
rthumb -5.65213 8.76695
lclavicle 2.37548e-014 -1.39149e-014
lhumerus -8.94516 -9.45413 81.1222
lradius 98.8252
lwrist 19.3927
lhand -26.2561 -10.8557
lfingers 7.12502
lthumb 0.298419 19.1239
rfemur 1.39691 7.26683 27.0902
rtibia 30.5946
rfoot -27.0234 -16.261
rtoes -8.91737
lfemur -14.5072 -10.8018 -12.356
ltibia 50.4551
lfoot -23.893 -4.86156
ltoes 2.78082
2
root -1.8638 16.8177 0.0167765 -341.274 -76.1004 328.443
lowerback 22.4891 -4.74916 6.82142
upperback 7.11095 -5.14173 0.156818
thorax -5.23176 -2.70626 -2.30599
lowerneck 0.242837 3.7765 2.2772
upperneck 17.6072 4.38814 1.01407
head 5.29045 2.15949 0.117222
rclavicle -1.11319e-014 3.93594e-014
rhumerus -38.1426 27.431 -83.1987
rradius 82.4316
rwrist -1.89137
rhand -32.979 39.1621
rfingers 7.12502
rthumb -6.19391 9.27267
lclavicle -1.11319e-014 3.93594e-014
lhumerus -7.03532 -8.87077 80.9272
lradius 100.219
lwrist 19.1727
lhand -26.4844 -11.8516
lfingers 7.12502
lthumb 0.0779194 18.1281
rfemur 0.446 5.80343 26.2645
rtibia 31.959
rfoot -25.7111 -15.6055
rtoes -9.69884
lfemur -14.2513 -10.7543 -12.6565
ltibia 49.9139
lfoot -23.8282 -5.32575
ltoes 2.98949
3
root -1.84176 16.8362 0.0685467 -342.439 -75.7494 329.527
lowerback 22.7139 -5.28231 6.4201
upperback 7.1552 -5.90984 0.153637
thorax -5.33358 -3.08426 -1.85094
lowerneck 0.398495 4.09579 2.07383
upperneck 17.5622 4.82024 1.05318
head 5.24676 2.35564 0.178225
rclavicle -4.05521e-014 4.37326e-014
rhumerus -39.6909 27.0315 -83.6602
rradius 80.5977
rwrist -1.11939
rhand -33.5759 39.6445
rfingers 7.12502
rthumb -6.77016 9.77277
lclavicle -4.05521e-014 4.37326e-014
lhumerus -5.17091 -8.29436 80.8027
lradius 101.627
lwrist 19.0089
lhand -26.568 -12.744
lfingers 7.12502
lthumb -0.002857 17.2357
rfemur -0.636316 4.45012 25.4944
rtibia 33.5859
rfoot -24.2504 -15.1863
rtoes -10.9894
lfemur -13.8998 -10.8137 -12.9737
ltibia 49.3196
lfoot -23.7564 -5.70914
ltoes 3.15441
4
root -1.82355 16.8571 0.121209 -343.416 -75.4009 330.377
lowerback 22.9382 -5.81819 6.06772
upperback 7.22654 -6.67586 0.136995
thorax -5.39819 -3.46045 -1.43608
lowerneck 0.586007 4.40985 1.93389
upperneck 17.4763 5.25079 1.03923
head 5.18754 2.5522 0.210299
rclavicle -3.99557e-014 5.56597e-015
rhumerus -41.0848 26.5442 -84.0447
rradius 78.7254
rwrist -0.310029
rhand -34.1233 39.9603
rfingers 7.12502
rthumb -7.29861 10.1061
lclavicle -3.99557e-014 5.56597e-015
lhumerus -3.28012 -7.771 80.6939
lradius 102.978
lwrist 18.7949
lhand -26.6098 -13.353
lfingers 7.12502
lthumb -0.0432521 16.6267
rfemur -1.88446 3.23292 24.8087
rtibia 35.5057
rfoot -22.4374 -14.9923
rtoes -11.8153
lfemur -13.4266 -10.9485 -13.2694
ltibia 48.6227
lfoot -23.6248 -6.04232
ltoes 3.38287
5
root -1.80722 16.8827 0.173321 -344.4 -75.0849 331.2
lowerback 23.1448 -6.33865 5.67643
upperback 7.35153 -7.43854 0.121689
thorax -5.37838 -3.83518 -1.00201
lowerneck 0.742938 4.73104 1.76455
upperneck 17.3933 5.68718 1.05179
head 5.13223 2.75186 0.255422
rclavicle -7.90169e-014 2.34566e-014
rhumerus -42.2909 26.0392 -84.2918
rradius 76.8793
rwrist 0.584195
rhand -34.5179 40.1573
rfingers 7.12502
rthumb -7.67951 10.3167
lclavicle -7.90169e-014 2.34566e-014
lhumerus -1.32408 -7.28375 80.6221
lradius 104.323
lwrist 18.7984
lhand -26.6202 -13.7721
lfingers 7.12502
lthumb -0.053296 16.2077
rfemur -3.30311 2.15083 24.124
rtibia 37.6976
rfoot -20.3054 -14.8672
rtoes -11.5624
lfemur -12.8443 -11.0553 -13.5916
ltibia 47.8299
lfoot -23.4742 -6.30788
ltoes 3.35995
6
root -1.7893 16.9244 0.223749 -345.165 -74.7852 331.773
lowerback 23.3537 -6.85549 5.29673
upperback 7.54222 -8.20142 0.113139
thorax -5.27494 -4.212 -0.571013
lowerneck 0.843539 5.05551 1.64832
upperneck 17.2657 6.14032 0.979153
head 5.07655 2.9598 0.266482
rclavicle 3.37934e-014 -1.74931e-014
rhumerus -43.2576 25.6041 -84.3756
rradius 75.0989
rwrist 1.51269
rhand -34.7589 40.2257
rfingers 7.12502
rthumb -7.91206 10.3937
lclavicle 3.37934e-014 -1.74931e-014
lhumerus 0.772282 -6.85102 80.4849
lradius 105.593
lwrist 18.9643
lhand -26.6906 -14.0259
lfingers 7.12502
lthumb -0.12128 15.9538
rfemur -4.93818 1.1466 23.495
rtibia 40.2058
rfoot -17.8339 -14.6631
rtoes -11.4013
lfemur -12.1536 -11.1611 -13.8489
ltibia 46.9095
lfoot -23.2515 -6.60995
ltoes 3.58176
7
root -1.76934 16.9649 0.269358 -345.762 -74.5267 332.134
lowerback 23.6051 -7.34004 4.91186
upperback 7.77731 -8.92757 0.0894824
thorax -5.13083 -4.57376 -0.163477
lowerneck 0.84931 5.36895 1.6099
upperneck 17.1912 6.57511 0.892606
head 5.05643 3.16314 0.262935
rclavicle 2.08724e-014 1.11319e-014
rhumerus -44.1154 25.1274 -84.407
rradius 73.3958
rwrist 2.52771
rhand -34.7477 40.2254
rfingers 7.12502
rthumb -7.90129 10.3931
lclavicle 2.08724e-014 1.11319e-014
lhumerus 3.01597 -6.52601 80.2969
lradius 106.78
lwrist 19.3375
lhand -26.7636 -14.1545
lfingers 7.12502
lthumb -0.191799 15.8251
rfemur -6.71009 0.271696 22.9514
rtibia 42.9928
rfoot -15.4483 -14.2341
rtoes -12.0425
lfemur -11.3971 -11.2022 -14.0515
ltibia 45.9456
lfoot -22.9705 -6.86525
ltoes 3.7535
8
root -1.74456 17.0045 0.312515 -346.157 -74.3522 332.273
lowerback 23.957 -7.79553 4.4987
upperback 7.99131 -9.61619 0.0832224
thorax -5.03845 -4.91979 0.280461
lowerneck 0.847859 5.6899 1.57098
upperneck 17.1477 7.02232 0.777904
head 5.04851 3.3704 0.251989
rclavicle -4.55217e-014 2.62396e-014
rhumerus -44.9734 24.6723 -84.3677
rradius 71.8235
rwrist 3.59096
rhand -34.4925 40.241
rfingers 7.12502
rthumb -7.6549 10.3995
lclavicle -4.55217e-014 2.62396e-014
lhumerus 5.3329 -6.26132 80.0454
lradius 107.93
lwrist 19.9513
lhand -26.9682 -14.1754
lfingers 7.12502
lthumb -0.389377 15.804
rfemur -8.65969 -0.516461 22.4537
rtibia 46.0407
rfoot -13.2133 -13.5333
rtoes -13.0078
lfemur -10.6329 -11.1281 -14.1999
ltibia 44.9775
lfoot -22.6434 -7.16105
ltoes 3.87867
9
root -1.7139 17.0419 0.357496 -346.281 -74.2515 332.116
lowerback 24.3548 -8.24752 4.15617
upperback 8.20543 -10.2855 0.0529755
thorax -4.97032 -5.25762 0.662618
lowerneck 0.977653 6.01534 1.58767
upperneck 17.0236 7.48 0.618948
head 4.99833 3.58388 0.213399
rclavicle 2.90226e-014 -3.49861e-014
rhumerus -45.7716 24.269 -84.3088
rradius 70.3641
rwrist 4.61604
rhand -33.9545 40.2365
rfingers 7.12502
rthumb -7.13566 10.3768
lclavicle 2.90226e-014 -3.49861e-014
lhumerus 7.69056 -6.01154 79.7153
lradius 109.026
lwrist 20.6806
lhand -27.1819 -14.0807
lfingers 7.12502
lthumb -0.595746 15.8982
rfemur -10.7525 -1.23192 22.0131
rtibia 49.2485
rfoot -11.1435 -12.5399
rtoes -13.1393
lfemur -9.89413 -11.0508 -14.3042
ltibia 44.095
lfoot -22.3631 -7.36521
ltoes 4.02719
10
root -1.68049 17.0696 0.401887 -346.257 -74.2331 331.765
lowerback 24.8006 -8.66469 3.81759
upperback 8.42028 -10.9098 0.0189252
thorax -4.91417 -5.5752 1.03357
lowerneck 1.21162 6.34441 1.57683
upperneck 16.8573 7.94036 0.472743
head 4.91713 3.79793 0.178313
rclavicle 4.51241e-014 -3.18055e-015
rhumerus -46.5312 23.9158 -84.1969
rradius 68.959
rwrist 5.57959
rhand -33.2813 40.254
rfingers 7.12502
rthumb -6.48577 10.3733
lclavicle 4.51241e-014 -3.18055e-015
lhumerus 9.98391 -5.85445 79.3236
lradius 110.145
lwrist 21.4476
lhand -27.5054 -13.9864
lfingers 7.12502
lthumb -0.908204 15.9914
rfemur -12.9183 -1.86263 21.6141
rtibia 52.5508
rfoot -9.4107 -11.1859
rtoes -12.22
lfemur -9.16917 -10.9483 -14.398
ltibia 43.3374
lfoot -22.1572 -7.53243
ltoes 4.09309
11
root -1.64542 17.0899 0.446218 -346.102 -74.2197 331.26
lowerback 25.2364 -9.0831 3.52916
upperback 8.66785 -11.5307 -0.0345356
thorax -4.81951 -5.89341 1.35358
lowerneck 1.5055 6.65962 1.61367
upperneck 16.6106 8.38763 0.279171
head 4.80622 4.00768 0.116215
rclavicle 3.37934e-014 -1.51076e-014
rhumerus -47.1758 23.5895 -84.0586
rradius 67.5963
rwrist 6.46886
rhand -32.4484 40.2698
rfingers 7.12502
rthumb -5.68164 10.3659
lclavicle 3.37934e-014 -1.51076e-014
lhumerus 12.2916 -5.67415 78.9413
lradius 111.241
lwrist 22.2053
lhand -27.771 -13.9623
lfingers 7.12502
lthumb -1.16477 16.0142
rfemur -15.1335 -2.47205 21.268
rtibia 55.8694
rfoot -7.99754 -9.59681
rtoes -11.2866
lfemur -8.50405 -10.8441 -14.4444
ltibia 42.7164
lfoot -21.9686 -7.7021
ltoes 4.2073
12
root -1.61102 17.105 0.488583 -345.817 -74.2006 330.581
lowerback 25.7317 -9.51371 3.26928
upperback 8.9053 -12.159 -0.0836818
thorax -4.75961 -6.21621 1.67785
lowerneck 1.92587 6.98978 1.57725
upperneck 15.8924 8.85075 0.107103
head 5.04996 4.2235 0.0788048
rclavicle -4.87022e-014 8.74653e-015
rhumerus -47.8364 23.3877 -83.9354
rradius 66.3078
rwrist 7.28705
rhand -31.6198 40.1587
rfingers 7.12502
rthumb -4.88158 10.2349
lclavicle -4.87022e-014 8.74653e-015
lhumerus 14.572 -5.44069 78.6784
lradius 112.226
lwrist 22.8712
lhand -27.9234 -13.9203
lfingers 7.12502
lthumb -1.3119 16.0554
rfemur -17.3524 -3.06021 21.0111
rtibia 59.1559
rfoot -6.88113 -7.91881
rtoes -10.9874
lfemur -7.85809 -10.7547 -14.4457
ltibia 42.2168
lfoot -21.8422 -7.83696
ltoes 4.23003
13
root -1.5789 17.1181 0.530479 -345.263 -74.1305 329.591
lowerback 26.2713 -9.9767 3.13337
upperback 9.1535 -12.8001 -0.150489
thorax -4.72789 -6.54473 1.93307
lowerneck 2.15726 7.31924 1.6241
upperneck 15.7104 9.31257 -0.0924638
head 4.95647 4.44232 0.00825059
rclavicle -8.94531e-014 2.14687e-014
rhumerus -48.4597 23.1658 -83.8082
rradius 65.0519
rwrist 8.14652
rhand -30.7239 40.0375
rfingers 7.12502
rthumb -4.0165 10.0956
lclavicle -8.94531e-014 2.14687e-014
lhumerus 16.8658 -5.18463 78.4411
lradius 113.077
lwrist 23.5078
lhand -27.9655 -13.9509
lfingers 7.12502
lthumb -1.35261 16.0246
rfemur -19.5576 -3.66231 20.8804
rtibia 62.3608
rfoot -6.01497 -6.21515
rtoes -11.0443
lfemur -7.22609 -10.716 -14.3405
ltibia 41.8013
lfoot -21.7416 -7.99302
ltoes 4.29892
14
root -1.54892 17.1312 0.570086 -344.463 -73.9888 328.302
lowerback 26.8541 -10.4784 3.10192
upperback 9.42052 -13.4657 -0.227656
thorax -4.71206 -6.88523 2.14191
lowerneck 2.39293 7.64615 1.66293
upperneck 15.4957 9.76896 -0.276277
head 4.85034 4.66009 -0.0574667
rclavicle -2.96189e-014 2.62396e-014
rhumerus -49.0816 23.0084 -83.7642
rradius 63.8494
rwrist 8.96156
rhand -29.8839 39.7582
rfingers 7.12502
rthumb -3.20533 9.80253
lclavicle -2.96189e-014 2.62396e-014
lhumerus 19.1324 -4.89493 78.2055
lradius 113.903
lwrist 24.1605
lhand -27.8597 -13.9301
lfingers 7.12502
lthumb -1.25045 16.046
rfemur -21.7297 -4.26898 20.9128
rtibia 65.4621
rfoot -5.30429 -4.60063
rtoes -11.5199
lfemur -6.56155 -10.6883 -14.1137
ltibia 41.4156
lfoot -21.6265 -8.18003
ltoes 4.42913
15
root -1.51975 17.1461 0.609955 -343.462 -73.7992 326.771
lowerback 27.4585 -11.0192 3.19776
upperback 9.69879 -14.1499 -0.351575
thorax -4.72786 -7.2322 2.25347
lowerneck 2.72541 7.97284 1.80879
upperneck 15.1891 10.2292 -0.508954
head 4.70365 4.88594 -0.163916
rclavicle 3.45885e-014 -1.59028e-015
rhumerus -49.7877 22.8351 -83.7797
rradius 62.7793
rwrist 9.78385
rhand -29.0181 39.4114
rfingers 7.12502
rthumb -2.36916 9.44485
lclavicle 3.45885e-014 -1.59028e-015
lhumerus 21.2905 -4.66924 77.9057
lradius 114.696
lwrist 24.843
lhand -27.7129 -13.9127
lfingers 7.12502
lthumb -1.10863 16.0642
rfemur -23.8785 -4.92034 21.0811
rtibia 68.4478
rfoot -4.62046 -3.06052
rtoes -11.3164
lfemur -5.86397 -10.687 -13.799
ltibia 41.0102
lfoot -21.5085 -8.37885
ltoes 4.34479
